<svg width="18" height="19" viewBox="0 0 18 19" fill="none" xmlns="http://www.w3.org/2000/svg">
<path d="M9 5.7117V8.2092" stroke="#5EAC47" stroke-width="1.2" stroke-miterlimit="10" stroke-linecap="round"/>
<path d="M9.01517 2.38171C6.25517 2.38171 4.02017 4.61671 4.02017 7.37671V8.95171C4.02017 9.46171 3.81017 10.2267 3.54767 10.6617L2.59517 12.2517C2.01017 13.2342 2.41517 14.3292 3.49517 14.6892C7.08017 15.8817 10.9577 15.8817 14.5427 14.6892C15.5552 14.3517 15.9902 13.1667 15.4427 12.2517L14.4902 10.6617C14.2277 10.2267 14.0177 9.45421 14.0177 8.95171V7.37671C14.0102 4.63171 11.7602 2.38171 9.01517 2.38171Z" stroke="#5EAC47" stroke-width="1.2" stroke-miterlimit="10" stroke-linecap="round"/>
<path d="M11.4974 14.9967C11.4974 16.3692 10.3724 17.4942 8.99994 17.4942C8.31744 17.4942 7.68744 17.2092 7.23744 16.7592C6.78744 16.3092 6.50244 15.6792 6.50244 14.9967" stroke="#5EAC47" stroke-width="1.2" stroke-miterlimit="10"/>
</svg>
