<svg width="24" height="24" viewBox="0 0 24 24" fill="none" xmlns="http://www.w3.org/2000/svg">
<g clip-path="url(#clip0_16_683)">
<path d="M10.9641 10.5797C11.2266 10.8797 11.6016 11.0531 12 11.0531C12.3984 11.0531 12.7734 10.8797 13.0359 10.5797C13.1625 10.4344 13.1484 10.2094 13.0031 10.0828C12.8578 9.95625 12.6328 9.97031 12.5063 10.1156C12.3797 10.2609 12.1922 10.3453 12 10.3453C11.8078 10.3453 11.6203 10.2609 11.4938 10.1156C11.3672 9.97031 11.1422 9.95625 10.9969 10.0828C10.8516 10.2141 10.8375 10.4344 10.9641 10.5797ZM13.5656 7.93125C13.3734 7.93125 13.2141 8.09062 13.2141 8.28281V8.75156C13.2141 8.94375 13.3734 9.10313 13.5656 9.10313C13.7578 9.10313 13.9172 8.94375 13.9172 8.75156V8.28281C13.9172 8.08594 13.7625 7.93125 13.5656 7.93125ZM10.4344 7.93125C10.2422 7.93125 10.0828 8.09062 10.0828 8.28281V8.75156C10.0828 8.94375 10.2422 9.10313 10.4344 9.10313C10.6266 9.10313 10.7859 8.94375 10.7859 8.75156V8.28281C10.7859 8.08594 10.6266 7.93125 10.4344 7.93125ZM10.2 7.42969H10.6688C10.8609 7.42969 11.0203 7.27031 11.0203 7.07813C11.0203 6.88594 10.8609 6.72656 10.6688 6.72656H10.2C10.0078 6.72656 9.84844 6.88594 9.84844 7.07813C9.84844 7.27031 10.0031 7.42969 10.2 7.42969ZM13.3313 7.42969H13.8C13.9922 7.42969 14.1516 7.27031 14.1516 7.07813C14.1516 6.88594 13.9922 6.72656 13.8 6.72656H13.3313C13.1391 6.72656 12.9797 6.88594 12.9797 7.07813C12.9797 7.27031 13.1391 7.42969 13.3313 7.42969Z" fill="white"/>
<path d="M21.3844 21.8438L20.6531 18.7031C20.4 17.6109 19.575 16.725 18.5016 16.3969L14.8313 15.2672C14.7844 15.0141 14.7 14.7656 14.5828 14.5266C14.6109 13.8844 14.7188 12.9984 15.0422 12.2906C15.3281 11.9016 15.5625 11.4563 15.7406 10.9734C15.8438 10.9969 15.9469 11.0063 16.05 11.0063C16.8609 11.0063 17.6484 10.3453 17.9109 9.375C18.0516 8.84531 18.0188 8.29688 17.8172 7.8375C17.7328 7.65 17.6297 7.48125 17.4984 7.34063V7.30313C17.4984 6.83906 17.4563 6.38438 17.3719 5.93437L18.6328 5.76562C19.0547 5.70937 19.3734 5.34844 19.3734 4.92188C19.3734 4.45312 18.9938 4.06875 18.5203 4.06875H17.2172C16.7672 2.44688 15.4922 0 12 0C8.50782 0 7.23282 2.44688 6.77344 4.07344H5.47032C5.00157 4.07344 4.61719 4.45312 4.61719 4.92656C4.61719 5.35313 4.93594 5.71406 5.35782 5.77031L6.61875 5.93906C6.53438 6.38906 6.49219 6.84375 6.49219 7.30781V7.35C6.36563 7.49063 6.25782 7.65469 6.17813 7.84219C5.97657 8.30625 5.94375 8.85 6.08438 9.37969C6.34688 10.35 7.12969 11.0109 7.94532 11.0109C8.04844 11.0109 8.15157 11.0016 8.25469 10.9781C8.43282 11.4609 8.66719 11.9062 8.95313 12.2953C9.28125 13.0031 9.38438 13.8891 9.4125 14.5312C9.29532 14.7703 9.21094 15.0187 9.16407 15.2719L5.49375 16.4016C4.42032 16.7297 3.59532 17.6156 3.34219 18.7078L2.61094 21.8484C2.48907 22.3734 2.61094 22.9172 2.94844 23.3391C3.28594 23.7609 3.7875 24.0047 4.32657 24.0047H19.6734C20.2125 24.0047 20.7141 23.7609 21.0516 23.3391C21.3844 22.9125 21.5063 22.3687 21.3844 21.8438ZM8.62969 9.47812V9.46875C8.61094 9.29062 8.60157 9.10781 8.60157 8.92031C8.60157 7.96875 8.85 7.04531 9.3 6.29062L10.7156 6.47812C11.1422 6.53437 11.5734 6.5625 12 6.5625C12.4266 6.5625 12.8578 6.53437 13.2844 6.47812L14.7 6.29062C15.15 7.04531 15.3984 7.96875 15.3984 8.92031C15.3984 9.10313 15.3891 9.28594 15.3703 9.46875V9.47812C15.2766 10.4156 14.9484 11.2547 14.4609 11.9062C14.4563 11.9156 14.4469 11.9203 14.4422 11.9297C13.8281 12.75 12.9609 13.2562 12 13.2562C11.0391 13.2562 10.1719 12.7453 9.55313 11.9297C9.54844 11.9203 9.54375 11.9156 9.53438 11.9062C9.05157 11.2547 8.72344 10.4109 8.62969 9.47812ZM12.3516 19.5703V17.7891L12.4922 18.0141C12.6328 18.2344 12.8625 18.375 13.125 18.3937C13.1484 18.3937 13.1672 18.3984 13.1906 18.3984C13.3781 18.3984 13.5516 18.3375 13.6969 18.2203V19.5703H12.3516ZM10.3031 19.5703V18.2203C10.4484 18.3328 10.6219 18.3984 10.8094 18.3984C10.8328 18.3984 10.8516 18.3984 10.875 18.3937C11.1375 18.375 11.3672 18.2344 11.5078 18.0141L11.6484 17.7844V19.5656H10.3031V19.5703ZM10.1719 16.9359C9.825 16.4156 9.73125 15.7781 9.90469 15.1922L11.5406 16.6312L10.9078 17.6391C10.8797 17.6812 10.8375 17.6906 10.8188 17.6953C10.7953 17.6953 10.7531 17.6953 10.7203 17.6531C10.5188 17.4188 10.3313 17.175 10.1719 16.9359ZM14.0953 15.1969C14.2641 15.7828 14.175 16.4203 13.8281 16.9406C13.6688 17.1797 13.4859 17.4188 13.2797 17.6578C13.2469 17.6953 13.2047 17.7 13.1813 17.7C13.1578 17.7 13.1203 17.6906 13.0922 17.6437L12.4594 16.6359L14.0953 15.1969ZM12 13.9594C12.7313 13.9594 13.4156 13.725 14.0109 13.3078C13.9359 13.7109 13.9031 14.1047 13.8844 14.4375L12 16.1016L10.1156 14.4422C10.0969 14.1047 10.0594 13.7156 9.98907 13.3125C10.5844 13.725 11.2688 13.9594 12 13.9594ZM9.58594 17.325C9.59063 17.3297 9.59532 17.3391 9.6 17.3438V19.5703H8.42813V16.2328L9.12657 16.0172C9.16875 16.4766 9.32344 16.9266 9.58594 17.325ZM7.95938 20.3906C7.95938 20.325 8.01094 20.2734 8.07657 20.2734H15.9234C15.9891 20.2734 16.0406 20.325 16.0406 20.3906C16.0406 21.3609 16.2188 22.3078 16.5656 23.2125L16.5984 23.2969H7.40157L7.43438 23.2125C7.78125 22.3078 7.95938 21.3609 7.95938 20.3906ZM15.5719 19.5703H14.4V17.3438C14.4047 17.3391 14.4094 17.3297 14.4141 17.325C14.6813 16.9266 14.8359 16.4719 14.8734 16.0125L15.5719 16.2281V19.5703ZM17.2359 9.19687C17.0438 9.90469 16.4813 10.3781 15.9422 10.2984C15.9984 10.05 16.0406 9.79688 16.0688 9.53906V9.54375C16.0734 9.49688 16.125 9.07969 16.7578 8.93906C16.9453 8.89687 17.0672 8.70937 17.025 8.51719C16.9828 8.32969 16.7953 8.20781 16.6031 8.25C16.3969 8.29688 16.2234 8.3625 16.0781 8.44219C16.0547 8.17031 16.0172 7.89844 15.9609 7.63594C16.1672 7.53281 16.3781 7.50938 16.5797 7.56094C16.8375 7.63125 17.0484 7.82812 17.175 8.11875C17.3156 8.4375 17.3391 8.81719 17.2359 9.19687ZM16.7906 6.89062C16.7813 6.88594 16.7719 6.88594 16.7625 6.88125C16.4344 6.79219 16.0969 6.82031 15.7734 6.95156C15.6844 6.68906 15.5719 6.43125 15.4453 6.19219L16.6781 6.02813C16.7391 6.31406 16.7719 6.6 16.7906 6.89062ZM16.4953 4.07344H14.6719C14.5359 3.09375 14.325 2.27344 14.0344 1.63125C13.9125 1.36406 13.7859 1.13438 13.65 0.946875C15.2953 1.48125 16.1016 2.8125 16.4953 4.07344ZM12 0.703125C13.275 0.703125 13.7766 2.83125 13.9594 4.07344H10.0406C10.2234 2.83594 10.725 0.703125 12 0.703125ZM10.35 0.946875C10.2141 1.13438 10.0875 1.35938 9.96563 1.63125C9.67969 2.26875 9.46407 3.09375 9.32813 4.07344H7.50469C7.89844 2.8125 8.70469 1.48125 10.35 0.946875ZM5.32032 4.92188C5.32032 4.84219 5.38594 4.77188 5.47032 4.77188H18.5344C18.6141 4.77188 18.6844 4.8375 18.6844 4.92188C18.6844 4.99687 18.6281 5.05781 18.5578 5.06719L13.2 5.77969C12.4078 5.8875 11.6063 5.8875 10.8141 5.77969L5.45625 5.06719C5.37657 5.0625 5.32032 4.99687 5.32032 4.92188ZM8.55 6.19219C8.42344 6.43594 8.31563 6.68906 8.22188 6.95156C7.89844 6.82031 7.56094 6.79688 7.23282 6.88125C7.22344 6.88594 7.21407 6.88594 7.20469 6.89062C7.22344 6.6 7.25625 6.30938 7.3125 6.02813L8.55 6.19219ZM6.76407 9.19687C6.66094 8.82187 6.68438 8.4375 6.82032 8.12344C6.94688 7.83281 7.15782 7.63594 7.41563 7.56562C7.6125 7.51406 7.82813 7.5375 8.03438 7.64062C7.97813 7.90312 7.94063 8.175 7.91719 8.44687C7.77188 8.36719 7.60313 8.29688 7.39219 8.25469C7.20469 8.2125 7.0125 8.32969 6.97032 8.52188C6.92813 8.70938 7.04532 8.90156 7.2375 8.94375C7.87032 9.08438 7.92188 9.50156 7.92657 9.54844V9.54375C7.95469 9.80625 7.99219 10.0594 8.05313 10.3031C7.51875 10.3781 6.95157 9.90469 6.76407 9.19687ZM3.50157 22.8984C3.3 22.6453 3.225 22.3172 3.3 22.0031L4.03125 18.8625C4.22813 18.0141 4.87032 17.325 5.70469 17.0672L7.725 16.4437V19.6453C7.44844 19.7766 7.25625 20.0578 7.25625 20.3859C7.25625 21.1266 7.14375 21.8578 6.91407 22.5609L6.38907 20.8734C6.33282 20.6859 6.13594 20.5828 5.94844 20.6437C5.76094 20.7 5.65782 20.8969 5.71875 21.0844L6.40782 23.2922H4.32657C4.00313 23.2969 3.70313 23.1516 3.50157 22.8984ZM20.4984 22.8984C20.2969 23.1516 19.9969 23.2969 19.6734 23.2969H17.5922L18.2813 21.0891C18.3375 20.9016 18.2344 20.7047 18.0516 20.6484C17.8641 20.5922 17.6672 20.6953 17.6109 20.8781L17.0859 22.5656C16.8609 21.8625 16.7438 21.1359 16.7438 20.3906C16.7438 20.0625 16.5516 19.7812 16.275 19.65V16.4484L18.2953 17.0719C19.1297 17.3297 19.7719 18.0141 19.9688 18.8672L20.7 22.0078C20.775 22.3172 20.7 22.6453 20.4984 22.8984Z" fill="white"/>
</g>
<defs>
<clipPath id="clip0_16_683">
<rect width="24" height="24" fill="white"/>
</clipPath>
</defs>
</svg>
