<svg width="24" height="25" viewBox="0 0 24 25" fill="none" xmlns="http://www.w3.org/2000/svg">
<g clip-path="url(#clip0_16_694)">
<path d="M0.75 20.5479H12.2812L10.2338 22.5954C10.1639 22.6656 10.1247 22.7607 10.1247 22.8597C10.1247 22.9588 10.1639 23.0538 10.2338 23.1241L11.2987 24.1891C11.3686 24.2584 11.4629 24.2974 11.5612 24.2979C11.6106 24.2981 11.6595 24.2887 11.7052 24.27C11.7509 24.2514 11.7925 24.2239 11.8275 24.1891L17.9363 18.0766L19.53 19.6741C19.6019 19.7426 19.697 19.7815 19.7962 19.7829C19.8456 19.7831 19.8945 19.7737 19.9402 19.755C19.9859 19.7364 20.0275 19.7089 20.0625 19.6741C22.1817 17.5576 23.4404 14.7302 23.595 11.7391L23.625 11.1916C23.6275 11.1408 23.6197 11.09 23.602 11.0423C23.5843 10.9946 23.5571 10.9511 23.522 10.9142C23.4869 10.8774 23.4447 10.8481 23.398 10.8281C23.3512 10.8081 23.3009 10.7978 23.25 10.7979L22.7025 10.8279C19.9831 10.97 17.3916 12.0273 15.3488 13.8279C15.2331 13.8114 15.1167 13.8014 15 13.7979H11.0775C10.9974 13.6579 10.9404 13.5059 10.9088 13.3479L12.315 12.8079C12.6604 12.6812 12.9589 12.4521 13.1707 12.1512C13.3824 11.8503 13.4973 11.492 13.5 11.1241V9.80035C13.7765 9.42678 13.9096 8.96632 13.875 8.50285C13.8754 8.26564 13.849 8.02914 13.7963 7.79785H16.125C16.4234 7.79785 16.7095 7.67933 16.9205 7.46835C17.1315 7.25737 17.25 6.97122 17.25 6.67285C17.25 6.37448 17.1315 6.08833 16.9205 5.87736C16.7095 5.66638 16.4234 5.54785 16.125 5.54785H13.875C13.68 3.03535 11.7413 1.04785 9.375 1.04785C7.00875 1.04785 5.07 3.03535 4.89375 5.54785H2.625C2.32663 5.54785 2.04048 5.66638 1.8295 5.87736C1.61853 6.08833 1.5 6.37448 1.5 6.67285C1.5 6.97122 1.61853 7.25737 1.8295 7.46835C2.04048 7.67933 2.32663 7.79785 2.625 7.79785H4.95375C4.90104 8.02914 4.87462 8.26564 4.875 8.50285C4.84044 8.96632 4.97352 9.42678 5.25 9.80035V11.1241C5.25269 11.492 5.36758 11.8503 5.57932 12.1512C5.79107 12.4521 6.08959 12.6812 6.435 12.8079L7.84125 13.3479C7.80955 13.5059 7.75257 13.6579 7.6725 13.7979H3.75C2.85489 13.7979 1.99645 14.1534 1.36351 14.7864C0.730579 15.4193 0.375 16.2777 0.375 17.1729V20.1729C0.375 20.2723 0.414509 20.3677 0.484835 20.438C0.555161 20.5083 0.650544 20.5479 0.75 20.5479ZM11.5612 23.3941L11.0287 22.8616L16.875 17.0154L17.4075 17.5479L11.5612 23.3941ZM22.725 11.5779H22.8525V11.7054C22.7164 14.3826 21.6347 16.9247 19.8 18.8791L15.5513 14.6304C17.5057 12.7956 20.0478 11.714 22.725 11.5779ZM13.875 14.5479H14.655C14.6407 14.6086 14.6417 14.672 14.6581 14.7322C14.6745 14.7925 14.7056 14.8477 14.7488 14.8929L16.3463 16.4866L13.875 18.9541V14.5479ZM12.375 14.5479H13.125V19.7041L13.0312 19.7979H12.375V14.5479ZM9.375 1.79785C11.3287 1.79785 12.9338 3.44785 13.125 5.54785H6.75C6.75 4.85166 7.02656 4.18398 7.51884 3.6917C8.01113 3.19941 8.67881 2.92285 9.375 2.92285V2.17285C8.47989 2.17285 7.62145 2.52843 6.98851 3.16137C6.35558 3.7943 6 4.65275 6 5.54785H5.64375C5.81625 3.44785 7.42125 1.79785 9.375 1.79785ZM2.625 7.04785C2.52554 7.04785 2.43016 7.00834 2.35984 6.93802C2.28951 6.86769 2.25 6.77231 2.25 6.67285C2.25 6.5734 2.28951 6.47801 2.35984 6.40769C2.43016 6.33736 2.52554 6.29785 2.625 6.29785H16.125C16.2245 6.29785 16.3198 6.33736 16.3902 6.40769C16.4605 6.47801 16.5 6.5734 16.5 6.67285C16.5 6.77231 16.4605 6.86769 16.3902 6.93802C16.3198 7.00834 16.2245 7.04785 16.125 7.04785H2.625ZM6.70125 12.1066C6.49838 12.0335 6.32261 11.9003 6.19733 11.7248C6.07206 11.5492 6.00322 11.3397 6 11.1241V9.5791C5.99969 9.50158 5.97537 9.42606 5.93037 9.36294C5.88538 9.29981 5.82193 9.25218 5.74875 9.2266C5.65671 8.99684 5.61453 8.75014 5.625 8.50285C5.61695 8.26249 5.65646 8.0229 5.74125 7.79785H13.0087C13.0935 8.0229 13.133 8.26249 13.125 8.50285C13.1355 8.75014 13.0933 8.99684 13.0012 9.2266C12.9281 9.25218 12.8646 9.29981 12.8196 9.36294C12.7746 9.42606 12.7503 9.50158 12.75 9.5791V11.1241C12.7468 11.3397 12.6779 11.5492 12.5527 11.7248C12.4274 11.9003 12.2516 12.0335 12.0487 12.1066L9.79875 12.9691C9.52597 13.0739 9.22403 13.0739 8.95125 12.9691L6.70125 12.1066ZM10.5 14.2666C10.5 14.565 10.3815 14.8511 10.1705 15.0621C9.95952 15.2731 9.67337 15.3916 9.375 15.3916C9.07663 15.3916 8.79048 15.2731 8.5795 15.0621C8.36853 14.8511 8.25 14.565 8.25 14.2666C8.37998 14.067 8.47745 13.848 8.53875 13.6179L8.6775 13.6704C9.1218 13.8403 9.6132 13.8403 10.0575 13.6704L10.1962 13.6179C10.2622 13.8489 10.3648 14.068 10.5 14.2666ZM7.125 14.5479H7.5375C7.62357 14.9717 7.85352 15.3528 8.1884 15.6265C8.52328 15.9002 8.94249 16.0497 9.375 16.0497C9.80751 16.0497 10.2267 15.9002 10.5616 15.6265C10.8965 15.3528 11.1264 14.9717 11.2125 14.5479H11.625V19.7979H7.125V14.5479ZM5.625 14.5479H6.375V19.7979H5.625V14.5479ZM1.125 17.1729C1.125 16.4767 1.40156 15.809 1.89384 15.3167C2.38613 14.8244 3.05381 14.5479 3.75 14.5479H4.875V19.7979H1.125V17.1729Z" fill="white"/>
</g>
<defs>
<clipPath id="clip0_16_694">
<rect width="24" height="24" fill="white" transform="translate(0 0.672852)"/>
</clipPath>
</defs>
</svg>
