<svg width="18" height="19" viewBox="0 0 18 19" fill="none" xmlns="http://www.w3.org/2000/svg">
<path d="M16.6585 7.70128L9.6585 1.57628C9.28148 1.24638 8.71852 1.24638 8.3415 1.57628L1.3415 7.70128C1.12448 7.89117 1 8.16549 1 8.45386V17.0001C1 17.5524 1.44772 18.0001 2 18.0001H6C6.55228 18.0001 7 17.5524 7 17.0001V13.0001C7 12.4478 7.44772 12.0001 8 12.0001H10C10.5523 12.0001 11 12.4478 11 13.0001V17.0001C11 17.5524 11.4477 18.0001 12 18.0001H16C16.5523 18.0001 17 17.5524 17 17.0001V8.45386C17 8.1655 16.8755 7.89117 16.6585 7.70128Z" stroke="#686868" stroke-width="1.2" stroke-linecap="round" stroke-linejoin="round"/>
</svg>
